<svg width="1200" height="675" viewBox="0 0 1200 675" fill="none" xmlns="http://www.w3.org/2000/svg">
  <defs>
    <linearGradient id="bg" x1="76" y1="59" x2="1126" y2="618" gradientUnits="userSpaceOnUse">
      <stop stop-color="#201233"/>
      <stop offset="0.55" stop-color="#4F316F"/>
      <stop offset="1" stop-color="#FFF6EA"/>
    </linearGradient>
  </defs>
  <rect width="1200" height="675" rx="32" fill="url(#bg)"/>
  <rect x="56" y="56" width="1088" height="563" rx="28" fill="#180F25" fill-opacity="0.82" stroke="#F2D29A" stroke-opacity="0.45" stroke-width="2"/>
  <text x="102" y="142" fill="#FADFAE" font-family="Arial, sans-serif" font-size="18">VISUAL ANTI-PATTERNS POSTER</text>
  <text x="102" y="214" fill="white" font-family="Arial, sans-serif" font-size="50" font-weight="700">Do / Don't Placeholder</text>
  <line x1="600" y1="254" x2="600" y2="560" stroke="#8B6DB5" stroke-width="2" stroke-dasharray="10 10"/>
  <text x="182" y="286" fill="#9EF0D3" font-family="Arial, sans-serif" font-size="28" font-weight="700">Do</text>
  <text x="668" y="286" fill="#FFB8AF" font-family="Arial, sans-serif" font-size="28" font-weight="700">Don't</text>
  <rect x="102" y="314" width="430" height="54" rx="18" fill="#1F4A40"/>
  <rect x="102" y="390" width="430" height="54" rx="18" fill="#1F4A40"/>
  <rect x="102" y="466" width="430" height="54" rx="18" fill="#1F4A40"/>
  <rect x="668" y="314" width="430" height="54" rx="18" fill="#5C2430"/>
  <rect x="668" y="390" width="430" height="54" rx="18" fill="#5C2430"/>
  <rect x="668" y="466" width="430" height="54" rx="18" fill="#5C2430"/>
  <text x="126" y="349" fill="#D9FFF1" font-family="Arial, sans-serif" font-size="22">Workflow with a real user and repeatable loop</text>
  <text x="126" y="425" fill="#D9FFF1" font-family="Arial, sans-serif" font-size="22">Visible leverage from OpenAI and Codex</text>
  <text x="126" y="501" fill="#D9FFF1" font-family="Arial, sans-serif" font-size="22">Honest scope with a usable product slice</text>
  <text x="692" y="349" fill="#FFE1DA" font-family="Arial, sans-serif" font-size="22">Single-prompt wrapper dressed up as a product</text>
  <text x="692" y="425" fill="#FFE1DA" font-family="Arial, sans-serif" font-size="22">Generic chatbot without a defined workflow</text>
  <text x="692" y="501" fill="#FFE1DA" font-family="Arial, sans-serif" font-size="22">Flashy demo with no credible end-to-end loop</text>
  <text x="102" y="584" fill="#F7DEB3" font-family="Arial, sans-serif" font-size="20">Placeholder only. Replace with a final sponsor-approved anti-pattern graphic later.</text>
</svg>
